{
  "accessors": [
    {
      "bufferView": 0,
      "byteOffset": 0,
      "count": 768,
      "componentType": 5126,
      "type": "VEC3",
      "min": [
        -0.0035000001080334187,
        -0.0035000001080334187,
        0
      ],
      "max": [
        0.0035000001080334187,
        0.0035000001080334187,
        0.0020000000949949026
      ]
    },
    {
      "bufferView": 0,
      "byteOffset": 12,
      "count": 768,
      "componentType": 5126,
      "type": "VEC3"
    },
    {
      "bufferView": 0,
      "byteOffset": 24,
      "count": 768,
      "componentType": 5126,
      "type": "VEC2"
    },
    {
      "bufferView": 1,
      "byteOffset": 0,
      "count": 378,
      "componentType": 5126,
      "type": "VEC3",
      "min": [
        -0.0035000001080334187,
        -0.0035000001080334187,
        0
      ],
      "max": [
        0.0035000001080334187,
        0.0035000001080334187,
        0
      ]
    },
    {
      "bufferView": 1,
      "byteOffset": 12,
      "count": 378,
      "componentType": 5126,
      "type": "VEC3"
    },
    {
      "bufferView": 1,
      "byteOffset": 24,
      "count": 378,
      "componentType": 5126,
      "type": "VEC2"
    },
    {
      "bufferView": 2,
      "byteOffset": 0,
      "count": 576,
      "componentType": 5126,
      "type": "VEC3",
      "min": [
        -0.0035000001080334187,
        -0.0035000001080334187,
        0.0020000000949949026
      ],
      "max": [
        0.0035000001080334187,
        0.0035000001080334187,
        0.0020000000949949026
      ]
    },
    {
      "bufferView": 2,
      "byteOffset": 12,
      "count": 576,
      "componentType": 5126,
      "type": "VEC3"
    },
    {
      "bufferView": 2,
      "byteOffset": 24,
      "count": 576,
      "componentType": 5126,
      "type": "VEC2"
    },
    {
      "bufferView": 3,
      "byteOffset": 0,
      "count": 384,
      "componentType": 5126,
      "type": "VEC3",
      "min": [
        -0.0010000000474974513,
        -0.0010000000474974513,
        0.0020000000949949026
      ],
      "max": [
        0.0010000000474974513,
        0.0010000000474974513,
        0.003000000026077032
      ]
    },
    {
      "bufferView": 3,
      "byteOffset": 12,
      "count": 384,
      "componentType": 5126,
      "type": "VEC3"
    },
    {
      "bufferView": 3,
      "byteOffset": 24,
      "count": 384,
      "componentType": 5126,
      "type": "VEC2"
    },
    {
      "bufferView": 4,
      "byteOffset": 0,
      "count": 186,
      "componentType": 5126,
      "type": "VEC3",
      "min": [
        -0.0010000000474974513,
        -0.0010000000474974513,
        0.003000000026077032
      ],
      "max": [
        0.0010000000474974513,
        0.0010000000474974513,
        0.003000000026077032
      ]
    },
    {
      "bufferView": 4,
      "byteOffset": 12,
      "count": 186,
      "componentType": 5126,
      "type": "VEC3"
    },
    {
      "bufferView": 4,
      "byteOffset": 24,
      "count": 186,
      "componentType": 5126,
      "type": "VEC2"
    }
  ],
  "asset": {
    "generator": "zoo.dev",
    "version": "2.0"
  },
  "buffers": [
    {
      "byteLength": 73344,
      "uri": "data:application/octet-stream;base64,"
    }
  ],
  "bufferViews": [
    {
      "buffer": 0,
      "byteLength": 24576,
      "byteOffset": 0,
      "byteStride": 32,
      "target": 34962
    },
    {
      "buffer": 0,
      "byteLength": 12096,
      "byteOffset": 24576,
      "byteStride": 32,
      "target": 34962
    },
    {
      "buffer": 0,
      "byteLength": 18432,
      "byteOffset": 36672,
      "byteStride": 32,
      "target": 34962
    },
    {
      "buffer": 0,
      "byteLength": 12288,
      "byteOffset": 55104,
      "byteStride": 32,
      "target": 34962
    },
    {
      "buffer": 0,
      "byteLength": 5952,
      "byteOffset": 67392,
      "byteStride": 32,
      "target": 34962
    }
  ],
  "scene": 0,
  "extensions": {
    "KITTYCAD_boundary_representation": {
      "solids": [
        {
          "shells": [
            [
              0,
              1
            ]
          ],
          "mesh": 0
        }
      ],
      "shells": [
        {
          "faces": [
            [
              0,
              1
            ],
            [
              1,
              1
            ],
            [
              2,
              1
            ],
            [
              3,
              1
            ],
            [
              4,
              1
            ]
          ]
        }
      ],
      "faces": [
        {
          "surface": [
            0,
            1
          ],
          "loops": [
            [
              0,
              -1
            ]
          ]
        },
        {
          "surface": [
            1,
            -1
          ],
          "loops": [
            [
              1,
              1
            ]
          ]
        },
        {
          "surface": [
            2,
            1
          ],
          "loops": [
            [
              2,
              1
            ],
            [
              3,
              1
            ]
          ]
        },
        {
          "surface": [
            3,
            1
          ],
          "loops": [
            [
              4,
              -1
            ]
          ]
        },
        {
          "surface": [
            4,
            1
          ],
          "loops": [
            [
              5,
              1
            ]
          ]
        }
      ],
      "loops": [
        {
          "edges": [
            [
              0,
              1
            ],
            [
              1,
              1
            ],
            [
              0,
              -1
            ],
            [
              2,
              -1
            ]
          ]
        },
        {
          "edges": [
            [
              2,
              1
            ]
          ]
        },
        {
          "edges": [
            [
              1,
              1
            ]
          ]
        },
        {
          "edges": [
            [
              3,
              -1
            ]
          ]
        },
        {
          "edges": [
            [
              4,
              1
            ],
            [
              5,
              1
            ],
            [
              4,
              -1
            ],
            [
              3,
              -1
            ]
          ]
        },
        {
          "edges": [
            [
              5,
              1
            ]
          ]
        }
      ],
      "edges": [
        {
          "curve": [
            0,
            1
          ],
          "start": 0,
          "end": 1,
          "t": [
            0,
            0.002
          ]
        },
        {
          "curve": [
            1,
            1
          ],
          "start": null,
          "end": null,
          "closed": true,
          "t": [
            0,
            6.28319
          ]
        },
        {
          "curve": [
            2,
            1
          ],
          "start": null,
          "end": null,
          "closed": true,
          "t": [
            0,
            6.28319
          ]
        },
        {
          "curve": [
            3,
            1
          ],
          "start": null,
          "end": null,
          "closed": true,
          "t": [
            0,
            6.28319
          ]
        },
        {
          "curve": [
            4,
            1
          ],
          "start": 2,
          "end": 3,
          "t": [
            0,
            0.001
          ]
        },
        {
          "curve": [
            5,
            1
          ],
          "start": null,
          "end": null,
          "closed": true,
          "t": [
            0,
            6.28319
          ]
        }
      ],
      "vertices": [
        [
          0.0035000000000000005,
          0,
          0
        ],
        [
          0.0035000000000000005,
          0,
          0.002
        ],
        [
          0.001,
          0,
          0.002
        ],
        [
          0.001,
          0,
          0.0030000000000000005
        ]
      ],
      "surfaces": [
        {
          "type": "cylinder",
          "cylinder": {
            "circle": {
              "origin": [
                0,
                0,
                0
              ],
              "radius": 0.0035000000000000005,
              "normal": [
                0,
                0,
                -1
              ],
              "xbasis": [
                1,
                0,
                0
              ]
            },
            "height": 0
          }
        },
        {
          "type": "plane",
          "plane": {
            "normal": [
              0,
              0,
              1
            ],
            "point": [
              -0,
              0,
              0
            ]
          }
        },
        {
          "type": "plane",
          "plane": {
            "normal": [
              0,
              0,
              1
            ],
            "point": [
              -0,
              0,
              0.002
            ]
          }
        },
        {
          "type": "cylinder",
          "cylinder": {
            "circle": {
              "origin": [
                0,
                0,
                0.002
              ],
              "radius": 0.001,
              "normal": [
                0,
                0,
                -1
              ],
              "xbasis": [
                1,
                0,
                0
              ]
            },
            "height": 0
          }
        },
        {
          "type": "plane",
          "plane": {
            "normal": [
              0,
              0,
              1
            ],
            "point": [
              -0,
              0,
              0.0030000000000000005
            ]
          }
        }
      ],
      "curves": [
        {
          "type": "line",
          "line": {
            "origin": [
              0.0035000000000000005,
              0,
              0
            ],
            "direction": [
              0,
              0,
              1
            ]
          }
        },
        {
          "type": "circle",
          "circle": {
            "origin": [
              0,
              0,
              0.002
            ],
            "radius": 0.0035000000000000005,
            "normal": [
              0,
              0,
              1
            ],
            "xbasis": [
              1,
              0,
              -0
            ]
          }
        },
        {
          "type": "circle",
          "circle": {
            "origin": [
              0,
              0,
              0
            ],
            "radius": 0.0035000000000000005,
            "normal": [
              0,
              0,
              1
            ],
            "xbasis": [
              1,
              0,
              -0
            ]
          }
        },
        {
          "type": "circle",
          "circle": {
            "origin": [
              0,
              0,
              0.002
            ],
            "radius": 0.001,
            "normal": [
              0,
              0,
              1
            ],
            "xbasis": [
              1,
              0,
              -0
            ]
          }
        },
        {
          "type": "line",
          "line": {
            "origin": [
              0.001,
              0,
              0.002
            ],
            "direction": [
              0,
              0,
              1
            ]
          }
        },
        {
          "type": "circle",
          "circle": {
            "origin": [
              0,
              0,
              0.0030000000000000005
            ],
            "radius": 0.001,
            "normal": [
              0,
              0,
              1
            ],
            "xbasis": [
              1,
              0,
              -0
            ]
          }
        }
      ]
    }
  },
  "extensionsUsed": [
    "KITTYCAD_boundary_representation"
  ],
  "meshes": [
    {
      "primitives": [
        {
          "attributes": {
            "POSITION": 0,
            "NORMAL": 1,
            "TEXCOORD_0": 2
          }
        },
        {
          "attributes": {
            "POSITION": 3,
            "NORMAL": 4,
            "TEXCOORD_0": 5
          }
        },
        {
          "attributes": {
            "POSITION": 6,
            "NORMAL": 7,
            "TEXCOORD_0": 8
          }
        },
        {
          "attributes": {
            "POSITION": 9,
            "NORMAL": 10,
            "TEXCOORD_0": 11
          }
        },
        {
          "attributes": {
            "POSITION": 12,
            "NORMAL": 13,
            "TEXCOORD_0": 14
          }
        }
      ]
    }
  ],
  "nodes": [
    {
      "children": [
        1
      ]
    },
    {
      "children": [
        2
      ]
    },
    {
      "extensions": {
        "KITTYCAD_boundary_representation": {
          "solid": 0
        }
      },
      "mesh": 0
    }
  ],
  "scenes": [
    {
      "nodes": [
        0
      ]
    }
  ]
}